<svg width="166" height="38" viewBox="0 0 166 38" fill="none" xmlns="http://www.w3.org/2000/svg">
<path d="M6.00297 10.62C6.0563 10.5933 6.3763 10.58 6.96297 10.58C8.02964 10.6067 8.96297 10.8067 9.76297 11.18L10.243 11.46L10.883 11.02L11.483 10.58H11.843C12.083 10.58 12.243 10.62 12.323 10.7L12.443 10.82V13.38V15.94L12.323 16.06L12.203 16.18H11.443H10.683L10.563 16.06C10.483 15.98 10.443 15.8067 10.443 15.54C10.3096 13.86 9.44297 12.82 7.84297 12.42C7.2563 12.3133 6.52297 12.3 5.64297 12.38C5.56297 12.4067 5.4963 12.42 5.44297 12.42C4.10964 12.7133 3.40297 13.4067 3.32297 14.5C3.26964 15.3 3.64297 15.94 4.44297 16.42C4.84297 16.66 5.68297 16.9133 6.96297 17.18C8.08297 17.3933 8.6963 17.5267 8.80297 17.58C10.5363 18.0067 11.8296 18.9533 12.683 20.42C12.7363 20.5267 12.7896 20.62 12.843 20.7C13.2163 21.4733 13.4163 22.2067 13.443 22.9C13.4963 24.4733 13.1096 25.7667 12.283 26.78C11.6963 27.58 10.8296 28.1667 9.68297 28.54C8.10964 29.0733 6.54964 29.1267 5.00297 28.7C4.22964 28.46 3.60297 28.14 3.12297 27.74L2.92297 27.62L2.20297 28.18C1.50964 28.6867 1.0963 28.94 0.962969 28.94C0.722969 28.94 0.562969 28.9 0.482969 28.82L0.362969 28.7V25.66C0.362969 23.5 0.429635 22.38 0.562969 22.3C0.616302 22.2733 0.896302 22.26 1.40297 22.26C1.96297 22.26 2.26964 22.3267 2.32297 22.46C2.34964 22.5133 2.38964 22.66 2.44297 22.9C3.2163 26.02 4.98964 27.38 7.76297 26.98C9.14964 26.82 10.0163 26.1933 10.363 25.1C10.4163 24.94 10.443 24.6733 10.443 24.3C10.443 23.9267 10.4163 23.66 10.363 23.5C10.203 22.9667 9.8163 22.4867 9.20297 22.06C8.7763 21.7667 7.90964 21.4867 6.60297 21.22C5.10964 20.9533 4.04297 20.6467 3.40297 20.3C2.78964 20.0067 2.2563 19.6333 1.80297 19.18C1.40297 18.78 1.06964 18.3133 0.802969 17.78C0.536302 17.22 0.389635 16.6333 0.362969 16.02C0.336302 15.22 0.509636 14.3933 0.882969 13.54C1.12297 13.06 1.40297 12.66 1.72297 12.34C2.54964 11.4333 3.80297 10.8733 5.48297 10.66C5.6163 10.6333 5.78964 10.62 6.00297 10.62ZM15.5052 12.38V11.26H15.7852L17.8252 11.34C18.9985 11.3667 20.2252 11.3667 21.5052 11.34L23.7052 11.26H23.9852V12.38V13.5H23.4652C22.7718 13.5267 22.3852 13.62 22.3052 13.78C22.2785 13.8333 22.7985 15.4333 23.8652 18.58L25.5052 23.26C25.5052 23.2333 25.9452 21.9267 26.8252 19.34L28.1452 15.5L27.8652 14.66C27.6518 14.0733 27.5185 13.7667 27.4652 13.74C27.3318 13.6067 26.8652 13.5267 26.0652 13.5H25.1452V12.38V11.26H25.3852L27.1052 11.34C28.1185 11.3667 29.3185 11.3667 30.7052 11.34C32.2785 11.2867 33.0785 11.26 33.1052 11.26H33.4252V12.38V13.5H32.7452C31.6518 13.5533 31.1052 13.66 31.1052 13.82L34.5052 23.74L37.5452 14.9L37.5052 14.62V14.58C37.3452 13.9933 36.7585 13.6333 35.7452 13.5C35.6918 13.5 35.6385 13.5 35.5852 13.5H35.2252V12.38V11.26H35.5452L37.7452 11.34C39.0518 11.3667 40.1585 11.3667 41.0652 11.34L42.6652 11.26H42.9052V12.38V13.5H42.6652C41.9185 13.5 41.2518 13.6333 40.6652 13.9C40.2385 14.1133 39.9318 14.4067 39.7452 14.78C39.6918 14.8333 38.8785 17.1667 37.3052 21.78C35.7318 26.34 34.9318 28.6333 34.9052 28.66C34.7985 28.82 34.5052 28.9133 34.0252 28.94C33.9985 28.94 33.9452 28.94 33.8652 28.94C33.2252 28.94 32.8385 28.86 32.7052 28.7C32.6252 28.62 31.4652 25.26 29.2252 18.62L27.5052 23.54C26.3852 26.8733 25.7852 28.58 25.7052 28.66C25.6252 28.8467 25.2385 28.94 24.5452 28.94C23.9585 28.9133 23.6118 28.82 23.5052 28.66C23.4785 28.6333 22.6118 26.1533 20.9052 21.22C19.2518 16.34 18.3985 13.8733 18.3452 13.82C18.2118 13.6333 17.6252 13.5267 16.5852 13.5H15.5052V12.38ZM48.2123 1.82C49.1457 1.60667 49.959 1.83333 50.6523 2.5C51.159 3.06 51.4123 3.67333 51.4123 4.34C51.4123 4.76667 51.319 5.16667 51.1323 5.54C50.6523 6.44667 49.8657 6.92667 48.7723 6.98C47.759 6.98 46.999 6.52667 46.4923 5.62C46.279 5.22 46.1723 4.79333 46.1723 4.34C46.1723 3.94 46.2657 3.55333 46.4523 3.18C46.799 2.43333 47.3857 1.98 48.2123 1.82ZM47.9323 11.06C50.1723 10.9 51.239 10.82 51.1323 10.82H51.2523V18.38C51.2523 23.42 51.279 25.9667 51.3323 26.02C51.4123 26.1 51.479 26.14 51.5323 26.14C51.6923 26.22 52.279 26.26 53.2923 26.26H54.0523V27.38V28.5H53.7323L51.4523 28.42C50.119 28.3933 48.7457 28.3933 47.3323 28.42C45.7057 28.4733 44.879 28.5 44.8523 28.5H44.4923V27.38V26.26H45.3323C46.719 26.26 47.4657 26.1667 47.5723 25.98C47.599 25.9533 47.6123 24.1133 47.6123 20.46C47.6123 16.62 47.559 14.5667 47.4523 14.3C47.3723 14.06 47.2123 13.8867 46.9723 13.78C46.599 13.5933 45.9723 13.5 45.0923 13.5H44.6523V12.38V11.26H44.7323L47.9323 11.06ZM65.9052 0.339998C66.6252 0.286665 67.1585 0.299999 67.5052 0.38C68.6785 0.62 69.4652 1.34 69.8652 2.54C69.9718 2.83333 70.0385 3.14 70.0652 3.46C70.1185 4.18 69.9052 4.78 69.4252 5.26C68.9985 5.66 68.4652 5.86 67.8252 5.86L67.2652 5.82H67.2252C66.1852 5.5 65.6385 4.80666 65.5852 3.74C65.5852 3.66 65.5852 3.58 65.5852 3.5C65.6118 3.12667 65.7318 2.75333 65.9452 2.38L66.0652 2.18H65.7852C64.9852 2.26 64.2785 2.60667 63.6652 3.22C62.9718 3.94 62.5318 4.80667 62.3452 5.82C62.3185 5.98 62.2918 6.95333 62.2652 8.74V11.26H64.3852H66.5052V12.38V13.5H64.4652H62.3852V19.7C62.3852 23.86 62.3985 25.9533 62.4252 25.98C62.5052 26.14 63.2785 26.2333 64.7452 26.26H66.2652V27.38V28.5H65.9052C65.9318 28.5 64.9852 28.4733 63.0652 28.42C61.4118 28.3933 59.8785 28.3933 58.4652 28.42C56.8385 28.4733 56.0118 28.5 55.9852 28.5H55.6252V27.38V26.26H56.4652C57.8518 26.26 58.5985 26.1667 58.7052 25.98C58.7318 25.9533 58.7452 23.86 58.7452 19.7V13.5H57.4252H56.1052V12.38V11.26H57.4252H58.7452V8.74C58.7718 6.9 58.8385 5.82 58.9452 5.5C58.9718 5.44667 59.0118 5.34 59.0652 5.18C59.6518 3.31333 61.0118 1.94 63.1452 1.06C64.0252 0.686665 64.9452 0.446665 65.9052 0.339998ZM72.4517 4.18V3.9H73.4517H74.4517V7.58V11.26H77.0517H79.6517V12.38V13.5H77.0517H74.4517V18.82C74.4517 22.4467 74.4651 24.34 74.4917 24.5C74.6517 25.8867 75.1451 26.6733 75.9717 26.86C76.9317 27.1 77.6251 26.6333 78.0517 25.46C78.2117 25.0067 78.3051 24.14 78.3317 22.86V21.26H79.3317H80.3317V22.86C80.3051 23.9533 80.2651 24.6067 80.2117 24.82C79.8384 26.5533 78.9451 27.78 77.5317 28.5C76.6784 28.8733 75.7984 29.0067 74.8917 28.9C72.8117 28.66 71.5051 27.58 70.9717 25.66C70.8117 25.1533 70.7317 24.22 70.7317 22.86C70.7317 23.18 70.7184 21.9133 70.6917 19.06V13.5H69.2117H67.7317V12.58V11.62H68.0517C68.8784 11.54 69.6517 11.1667 70.3717 10.5C70.9584 9.91333 71.4517 9.08667 71.8517 8.02C72.2517 6.76667 72.4517 5.48667 72.4517 4.18ZM86.7186 0.979999C89.0119 0.82 90.1053 0.74 89.9986 0.74H90.1586V13.34C90.1586 21.74 90.1719 25.9533 90.1986 25.98C90.3053 26.1667 91.0519 26.26 92.4386 26.26H93.2786V27.38V28.5H92.9186L90.4386 28.42C89.0253 28.3933 87.6119 28.3933 86.1986 28.42L83.7586 28.5H83.3986V27.38V26.26H84.2386C85.6253 26.26 86.3719 26.1667 86.4786 25.98V4.78C86.3719 4.14 86.0386 3.74 85.4786 3.58C85.1853 3.5 84.7319 3.44666 84.1186 3.42H83.3986V2.3V1.18H83.4786L86.7186 0.979999ZM102.691 10.66C105.091 10.3667 107.265 11.0333 109.211 12.66C109.398 12.82 109.571 12.98 109.731 13.14C110.131 13.54 110.371 13.8067 110.451 13.94C112.185 16.1533 112.838 18.6333 112.411 21.38C112.385 21.5133 112.358 21.6467 112.331 21.78C111.851 24.26 110.531 26.18 108.371 27.54C107.571 28.0467 106.705 28.42 105.771 28.66C105.158 28.82 104.465 28.9 103.691 28.9C102.891 28.9 102.185 28.82 101.571 28.66C99.0647 28.02 97.1847 26.58 95.9314 24.34C95.1847 22.98 94.8114 21.5133 94.8114 19.94C94.8114 17.9933 95.3314 16.2467 96.3714 14.7C97.9181 12.3267 100.025 10.98 102.691 10.66ZM104.331 12.5C102.838 12.2867 101.585 12.66 100.571 13.62C99.7714 14.34 99.3181 15.5533 99.2114 17.26C99.1847 17.3667 99.1714 17.4867 99.1714 17.62C99.0647 18.98 99.0781 20.58 99.2114 22.42C99.3181 23.4067 99.5047 24.1533 99.7714 24.66C100.331 25.8867 101.358 26.62 102.851 26.86C103.358 26.9667 103.878 26.98 104.411 26.9C105.905 26.66 106.958 25.9133 107.571 24.66C107.838 24.1533 108.025 23.4067 108.131 22.42C108.265 21.1933 108.278 19.66 108.171 17.82C108.171 17.74 108.171 17.6733 108.171 17.62C108.065 15.78 107.638 14.4867 106.891 13.74C106.865 13.7133 106.825 13.6733 106.771 13.62C106.105 12.98 105.291 12.6067 104.331 12.5ZM130.291 10.42H131.291C131.958 10.5533 132.451 10.9533 132.771 11.62C133.305 12.6867 133.225 13.5267 132.531 14.14C132.265 14.38 131.931 14.5133 131.531 14.54C130.758 14.5667 130.211 14.2333 129.891 13.54C129.838 13.4067 129.798 13.26 129.771 13.1C129.718 12.8067 129.758 12.62 129.891 12.54L130.451 12.5H130.491L131.051 12.46L131.011 12.38C130.958 12.3267 130.825 12.3 130.611 12.3C129.838 12.3 129.078 12.5667 128.331 13.1L128.171 13.22L128.451 13.58C128.851 14.1133 129.158 14.7133 129.371 15.38C129.638 16.3933 129.638 17.38 129.371 18.34C129.158 19.0067 128.865 19.5933 128.491 20.1C128.091 20.66 127.665 21.1 127.211 21.42C125.451 22.78 123.411 23.2333 121.091 22.78C120.398 22.6467 119.731 22.4333 119.091 22.14L118.651 21.9L118.531 22.18C118.238 22.74 118.198 23.3533 118.411 24.02C118.625 24.6333 119.025 25.0467 119.611 25.26C119.745 25.3133 120.785 25.3533 122.731 25.38C124.971 25.4067 126.425 25.4867 127.091 25.62C128.718 25.86 129.985 26.42 130.891 27.3C131.905 28.2333 132.451 29.5 132.531 31.1C132.558 32.0867 132.251 32.98 131.611 33.78C130.865 34.7133 129.731 35.46 128.211 36.02C125.891 36.8467 123.425 36.9933 120.811 36.46C120.625 36.4333 120.438 36.3933 120.251 36.34C119.505 36.1533 118.785 35.9 118.091 35.58C115.718 34.38 114.625 32.86 114.811 31.02C114.838 30.94 114.851 30.86 114.851 30.78C114.905 30.4867 115.038 30.1133 115.251 29.66C115.651 28.8333 116.278 28.18 117.131 27.7L117.411 27.54L117.131 27.22C116.091 25.8867 115.811 24.3533 116.291 22.62C116.558 21.9533 116.798 21.46 117.011 21.14C117.118 20.98 117.185 20.8867 117.211 20.86C117.211 20.8333 117.158 20.74 117.051 20.58C116.518 20.0467 116.091 19.3 115.771 18.34C115.425 17.0333 115.545 15.7533 116.131 14.5C116.478 13.86 116.851 13.34 117.251 12.94C118.611 11.5267 120.385 10.82 122.571 10.82C124.038 10.82 125.358 11.1667 126.531 11.86C126.691 11.9667 126.785 12.02 126.811 12.02L127.091 11.78C127.998 11.0333 129.065 10.58 130.291 10.42ZM123.171 12.78C121.811 12.5933 120.798 12.9133 120.131 13.74C120.051 13.8467 119.985 13.9533 119.931 14.06C119.718 14.5133 119.611 15.4467 119.611 16.86C119.611 18.3 119.718 19.2333 119.931 19.66C120.251 20.4067 120.931 20.8467 121.971 20.98C123.331 21.1667 124.345 20.8467 125.011 20.02C125.091 19.9133 125.158 19.7933 125.211 19.66C125.451 19.18 125.571 18.2467 125.571 16.86C125.571 15.5 125.451 14.5667 125.211 14.06C124.865 13.34 124.185 12.9133 123.171 12.78ZM125.291 28.74C125.078 28.7133 124.105 28.7 122.371 28.7C120.638 28.7 119.611 28.78 119.291 28.94C118.838 29.18 118.478 29.5533 118.211 30.06C118.025 30.4333 117.931 30.86 117.931 31.34C117.931 31.6867 117.958 31.9267 118.011 32.06C118.358 33.02 119.265 33.78 120.731 34.34C121.611 34.6333 122.598 34.78 123.691 34.78C124.758 34.78 125.745 34.6333 126.651 34.34C128.038 33.8333 128.931 33.0733 129.331 32.06C129.465 31.66 129.478 31.2333 129.371 30.78C128.945 29.58 127.585 28.9 125.291 28.74ZM138.251 1.82C139.185 1.60667 139.998 1.83333 140.691 2.5C141.198 3.06 141.451 3.67333 141.451 4.34C141.451 4.76667 141.358 5.16667 141.171 5.54C140.691 6.44667 139.905 6.92667 138.811 6.98C137.798 6.98 137.038 6.52667 136.531 5.62C136.318 5.22 136.211 4.79333 136.211 4.34C136.211 3.94 136.305 3.55333 136.491 3.18C136.838 2.43333 137.425 1.98 138.251 1.82ZM137.971 11.06C140.211 10.9 141.278 10.82 141.171 10.82H141.291V18.38C141.291 23.42 141.318 25.9667 141.371 26.02C141.451 26.1 141.518 26.14 141.571 26.14C141.731 26.22 142.318 26.26 143.331 26.26H144.091V27.38V28.5H143.771L141.491 28.42C140.158 28.3933 138.785 28.3933 137.371 28.42C135.745 28.4733 134.918 28.5 134.891 28.5H134.531V27.38V26.26H135.371C136.758 26.26 137.505 26.1667 137.611 25.98C137.638 25.9533 137.651 24.1133 137.651 20.46C137.651 16.62 137.598 14.5667 137.491 14.3C137.411 14.06 137.251 13.8867 137.011 13.78C136.638 13.5933 136.011 13.5 135.131 13.5H134.691V12.38V11.26H134.771L137.971 11.06ZM145.464 12.38V11.26H145.744L147.864 11.34C149.091 11.3667 150.438 11.3667 151.904 11.34L154.424 11.26H154.744V12.38V13.5L154.304 13.54C154.091 13.54 153.864 13.58 153.624 13.66C153.438 13.7133 153.344 13.78 153.344 13.86C153.344 13.9667 153.731 14.5533 154.504 15.62L155.664 17.26C155.718 17.26 156.011 16.8733 156.544 16.1C157.238 15.1933 157.571 14.6067 157.544 14.34C157.464 13.8867 157.184 13.62 156.704 13.54L156.464 13.5V12.38V11.26H156.744L159.024 11.34C161.531 11.3933 163.371 11.3667 164.544 11.26H164.824V12.38V13.5H164.464C163.958 13.5 163.331 13.5533 162.584 13.66C161.411 13.8733 160.571 14.2467 160.064 14.78C159.878 14.9667 159.318 15.7133 158.384 17.02L156.904 19.02L157.104 19.34L161.784 25.94C161.891 26.0467 162.011 26.1 162.144 26.1C162.384 26.2067 163.184 26.26 164.544 26.26H165.504V27.38V28.5H165.224C163.944 28.3933 161.891 28.3667 159.064 28.42L156.544 28.5H156.184V27.38V26.26H156.504C157.224 26.2067 157.611 26.0867 157.664 25.9C157.664 25.8733 157.198 25.1933 156.264 23.86C155.358 22.58 154.864 21.94 154.784 21.94L152.624 24.9C152.491 25.14 152.491 25.4067 152.624 25.7C152.784 26.0467 153.091 26.2333 153.544 26.26H153.624V27.38V28.5H153.304L151.024 28.42C149.718 28.3933 148.518 28.3933 147.424 28.42C146.171 28.4733 145.531 28.5 145.504 28.5H145.264V27.38V26.26H145.944C148.051 26.18 149.438 25.7267 150.104 24.9C150.158 24.82 150.758 24.0067 151.904 22.46C153.024 20.94 153.584 20.1667 153.584 20.14L151.384 16.94C149.918 14.86 149.091 13.7667 148.904 13.66C148.851 13.6333 148.718 13.6067 148.504 13.58L146.824 13.5H145.464V12.38Z" fill="#035E89"/>
</svg>
